<svg width="20" height="16" viewBox="0 0 20 16" fill="none" xmlns="http://www.w3.org/2000/svg">
<path d="M6.02683 3.36707C5.72703 2.3514 4.91324 2.46272 4.35683 2.93577C2.9862 4.20185 1.20154 6.85927 2.34374 10.6858C3.30031 13.9275 7.28064 16.0006 7.28064 16.0006H2.64064C2.64064 16.0006 0.244811 13.3154 0.0306387 10.1571C-0.240621 6.16409 1.35857 3.64578 3.21463 2.00409C4.95645 0.459726 6.61263 0.000610352 6.61263 0.000610352L10.0005 11.1006L13.3883 0.000610352C13.3883 0.000610352 15.0445 0.459727 16.7863 2.00409C18.6424 3.64578 20.2415 6.16409 19.9703 10.1571C19.7561 13.3154 17.3603 16.0006 17.3603 16.0006H12.7203C12.7203 16.0006 16.7003 13.9275 17.6572 10.6858C18.7994 6.85971 17.0147 4.20228 15.6441 2.93577C15.0873 2.46272 14.2735 2.3514 13.9741 3.36707C12.9461 6.60882 10.0009 15.8971 10.0009 15.8971C10.0009 15.8971 7.05564 6.60571 6.02767 3.36707H6.02683Z" fill="white"/>
</svg>
